Coordinates
version=1
nRows=15
nColumns=63
inDegrees=yes

Units are S.I. units (second, meters, Newtons, ...)
If the header above contains a line with 'inDegrees', this indicates whether rotational values are in degrees (yes) or radians (no).

endheader
time	pelvis_tilt	pelvis_list	pelvis_rotation	pelvis_tx	pelvis_ty	pelvis_tz	hip_flexion_r	hip_adduction_r	hip_rotation_r	knee_angle_r	knee_angle_r_beta	ankle_angle_r	subtalar_angle_r	mtp_angle_r	hip_flexion_l	hip_adduction_l	hip_rotation_l	knee_angle_l	knee_angle_l_beta	ankle_angle_l	subtalar_angle_l	mtp_angle_l	L5_S1_Flex_Ext	L5_S1_Lat_Bending	L5_S1_axial_rotation	L4_L5_Flex_Ext	L4_L5_Lat_Bending	L4_L5_axial_rotation	L3_L4_Flex_Ext	L3_L4_Lat_Bending	L3_L4_axial_rotation	L2_L3_Flex_Ext	L2_L3_Lat_Bending	L2_L3_axial_rotation	L1_L2_Flex_Ext	L1_L2_Lat_Bending	L1_L2_axial_rotation	L1_T12_Flex_Ext	L1_T12_Lat_Bending	L1_T12_axial_rotation	Abs_r3	Abs_r2	Abs_r1	Abs_t1	Abs_t2	neck_flexion	neck_bending	neck_rotation	arm_flex_r	arm_add_r	arm_rot_r	elbow_flex_r	pro_sup_r	wrist_flex_r	wrist_dev_r	arm_flex_l	arm_add_l	arm_rot_l	elbow_flex_l	pro_sup_l	wrist_flex_l	wrist_dev_l
0.000000	1.866032	-2.965460	86.654666	0.177972	0.963259	0.502170	6.645302	3.591223	0.523712	4.022648	0.070208	22.947475	-11.462274	0.000000	6.484857	-2.822722	-5.505335	5.093142	0.088892	31.311647	9.486429	0.000000	0.185341	0.113608	0.380851	0.344196	0.151099	0.404655	0.304496	0.276228	0.404655	0.211826	0.276228	0.333245	0.172107	0.231670	0.309442	0.105904	0.175979	0.285639	1.323871	1.285161	2.118181	0.000000	0.000000	21.363290	-0.057801	-1.600044	9.527786	-9.291224	41.424887	58.121351	64.784086	-2.458246	17.899097	11.826566	-12.573253	50.666650	59.460207	78.795713	-11.492765	10.168529
0.018519	1.762828	-3.129918	86.662768	0.176944	0.963084	0.503636	7.057312	3.365858	0.077049	4.396539	0.076734	23.196863	-10.977407	0.000000	6.866022	-2.673657	-5.247600	5.686978	0.099256	30.909065	8.504588	0.000000	0.186870	0.121397	0.391320	0.347037	0.161458	0.415778	0.307009	0.295164	0.415778	0.213574	0.295164	0.342405	0.173528	0.247553	0.317948	0.106778	0.188044	0.293490	1.334795	1.373266	2.176406	0.000000	0.000000	21.226733	0.440679	-1.237223	9.841566	-9.576077	41.386176	57.997807	66.136723	-2.023056	17.032719	12.785307	-12.455300	52.216563	59.445832	72.488140	-14.189297	7.468203
0.037037	1.697548	-3.277867	86.720876	0.176041	0.962899	0.504966	7.420907	3.194327	-0.349016	4.698567	0.082005	23.455041	-10.491316	0.000000	7.226738	-2.574592	-5.127974	6.202605	0.108256	30.602336	7.836648	0.000000	0.188328	0.129287	0.389380	0.349744	0.171952	0.413716	0.309404	0.314349	0.413716	0.215240	0.314349	0.340707	0.174881	0.263643	0.316371	0.107611	0.200266	0.292035	1.345208	1.462524	2.165614	0.000000	0.000000	21.169666	0.784520	-0.960607	10.127719	-9.811531	41.288423	57.905711	67.705420	-1.482236	16.167687	13.537572	-12.351409	53.399975	59.460937	66.999921	-16.385903	5.161721
0.055556	1.665741	-3.409779	86.820136	0.175260	0.962707	0.506162	7.739097	3.071475	-0.753563	4.937070	0.086168	23.717443	-10.009913	0.000000	7.565109	-2.520157	-5.131607	6.644576	0.115970	30.382938	7.449981	0.000000	0.189724	0.137142	0.377001	0.352336	0.182399	0.400563	0.311697	0.333448	0.400563	0.216835	0.333448	0.329876	0.176177	0.279660	0.306313	0.108408	0.212433	0.282751	1.355178	1.551380	2.096766	0.000000	0.000000	21.183547	0.989625	-0.762455	10.386328	-10.000902	41.141566	57.841464	69.432202	-0.861032	15.317884	14.103110	-12.260276	54.249315	59.499976	62.310041	-18.111588	3.237817
0.074074	1.662952	-3.526126	86.951691	0.174597	0.962511	0.507227	8.014892	2.992148	-1.135672	5.120382	0.089368	23.979504	-9.539108	0.000000	7.879236	-2.504981	-5.243651	7.017442	0.122477	30.242352	7.311956	0.000000	0.191067	0.144824	0.356154	0.354830	0.192616	0.378414	0.313903	0.352126	0.378414	0.218370	0.352126	0.311635	0.177425	0.295326	0.289375	0.109175	0.224333	0.267115	1.364770	1.638282	1.980822	0.000000	0.000000	21.259835	1.071900	-0.635024	10.617476	-10.147507	40.955541	57.801472	71.259094	-0.184686	14.497190	14.501672	-12.180594	54.797010	59.557405	58.397480	-19.395361	1.685227
0.092593	1.684727	-3.627379	87.106688	0.174049	0.962312	0.508162	8.251300	2.951192	-1.494424	5.256839	0.091749	24.236659	-9.084812	0.000000	8.167223	-2.523696	-5.449255	7.325756	0.127859	30.172058	7.389943	0.000000	0.192366	0.152196	0.328810	0.357243	0.202421	0.349361	0.316038	0.370050	0.349361	0.219855	0.370050	0.287709	0.178631	0.310358	0.267158	0.109918	0.235752	0.246607	1.374052	1.721673	1.828742	0.000000	0.000000	21.389988	1.047249	-0.570573	10.821245	-10.254660	40.740288	57.782137	73.128117	0.521560	13.719487	14.753005	-12.111059	55.075490	59.627678	55.241222	-20.266229	0.492685
0.111111	1.726612	-3.714010	87.276270	0.173612	0.962115	0.508970	8.451332	2.943452	-1.828899	5.354778	0.093459	24.484343	-8.652938	0.000000	8.427171	-2.570932	-5.733570	7.574070	0.132192	30.163535	7.651312	0.000000	0.193631	0.159120	0.296939	0.359593	0.211630	0.315498	0.318117	0.386885	0.315498	0.221301	0.386885	0.259822	0.179806	0.324478	0.241263	0.110641	0.246477	0.222705	1.383089	1.800000	1.651488	0.000000	0.000000	21.565465	0.931576	-0.561359	10.997717	-10.325678	40.505743	57.779864	74.981298	1.232461	12.998657	14.876861	-12.050365	55.117182	59.705250	52.820248	-20.753198	-0.351073
0.129630	1.784153	-3.786492	87.451583	0.173283	0.961920	0.509653	8.617998	2.963774	-2.138178	5.422534	0.094641	24.717991	-8.249395	0.000000	8.657184	-2.641318	-6.081747	7.766936	0.135559	30.208262	8.063434	0.000000	0.194872	0.165459	0.262513	0.361896	0.220061	0.278920	0.320155	0.402298	0.278920	0.222719	0.402298	0.229699	0.180958	0.337405	0.213292	0.111350	0.256297	0.196885	1.391950	1.871709	1.460020	0.000000	0.000000	21.777725	0.740788	-0.599639	11.146977	-10.363877	40.261844	57.791054	76.760659	1.922776	12.348580	14.892987	-11.997209	54.954514	59.784577	51.113541	-20.885277	-0.857312
0.148148	1.852897	-3.845295	87.623772	0.173059	0.961732	0.510214	8.754308	3.007004	-2.421340	5.468443	0.095442	24.933036	-7.880094	0.000000	8.855364	-2.729486	-6.478936	7.908905	0.138036	30.297721	8.593678	0.000000	0.196097	0.171076	0.227502	0.364171	0.227531	0.241721	0.322167	0.415954	0.241721	0.224119	0.415954	0.199064	0.182095	0.348858	0.184845	0.112050	0.264997	0.170627	1.400699	1.935246	1.265298	0.000000	0.000000	22.018226	0.490788	-0.677673	11.269106	-10.372573	40.018528	57.812113	78.408225	2.567260	11.783138	14.821133	-11.950283	54.619914	59.860113	50.100083	-20.691473	-1.037298
0.166667	1.928390	-3.890892	87.783981	0.172937	0.961552	0.510654	8.863270	3.067986	-2.677468	5.500840	0.096008	25.124915	-7.550948	0.000000	9.019813	-2.830065	-6.910288	8.004530	0.139705	30.423389	9.209415	0.000000	0.197315	0.175833	0.193877	0.366435	0.233857	0.205994	0.324170	0.427520	0.205994	0.225512	0.427520	0.169642	0.183227	0.358558	0.157525	0.112746	0.272365	0.145407	1.409405	1.989055	1.078283	0.000000	0.000000	22.278426	0.197481	-0.787717	11.364187	-10.355081	39.785733	57.839443	79.866018	3.140672	11.316213	14.681050	-11.908284	54.145810	59.926312	49.758857	-20.200793	-0.902295
0.185185	2.006177	-3.923755	87.923356	0.172912	0.961384	0.510977	8.947894	3.141568	-2.905641	5.528062	0.096483	25.289061	-7.267867	0.000000	9.148635	-2.937687	-7.360954	8.058363	0.140645	30.576748	9.878014	0.000000	0.198537	0.179592	0.163608	0.368704	0.238858	0.173833	0.326177	0.436660	0.173833	0.226908	0.436660	0.143157	0.184362	0.366224	0.132931	0.113444	0.278188	0.122706	1.418132	2.031583	0.909936	0.000000	0.000000	22.549784	-0.123227	-0.922030	11.432303	-10.314717	39.573396	57.869449	81.076065	3.617767	10.961686	14.492485	-11.869906	53.564631	59.977631	50.068845	-19.442244	-0.463568
0.203704	2.077531	-3.949136	88.000871	0.172985	0.961247	0.511165	9.019612	3.221803	-3.087663	5.581989	0.097424	25.379252	-7.101426	0.000000	9.234534	-3.043019	-7.801880	8.068592	0.140823	30.797193	10.555487	0.000000	0.200882	0.183349	0.148778	0.373058	0.243854	0.158077	0.330029	0.445795	0.158077	0.229588	0.445795	0.130181	0.186539	0.373886	0.120882	0.114784	0.284008	0.111583	1.434881	2.074083	0.827459	0.000000	0.000000	22.775944	-0.393097	-1.035156	11.418568	-10.265548	39.358011	57.915011	81.909356	3.827680	10.794101	14.346982	-11.811021	52.973810	59.965654	51.659676	-18.280494	0.425866
0.222222	2.132081	-3.950128	88.015678	0.173203	0.961123	0.511218	9.057800	3.295489	-3.214024	5.666416	0.098898	25.400299	-7.044084	0.000000	9.254218	-3.135527	-8.227475	8.043582	0.140387	30.987248	11.179471	0.000000	0.201374	0.183976	0.144763	0.373972	0.244688	0.153810	0.330838	0.447320	0.153810	0.230151	0.447320	0.126667	0.186996	0.375164	0.117620	0.115065	0.284979	0.108572	1.438395	2.081176	0.805126	0.000000	0.000000	23.005720	-0.673445	-1.176408	11.394137	-10.197230	39.267371	57.939726	82.031209	3.784672	10.813031	14.197763	-11.764479	52.355972	59.925054	53.740375	-16.937858	1.641299
0.240741	2.175500	-3.946064	88.010535	0.173492	0.961004	0.511148	9.090757	3.362184	-3.396429	5.792059	0.101090	25.366844	-7.038016	0.000000	9.245429	-3.217583	-8.575308	8.011254	0.139823	31.153933	11.728608	0.000000	0.203091	0.182383	0.144541	0.377161	0.242569	0.153575	0.333658	0.443446	0.153575	0.232113	0.443446	0.126474	0.188590	0.371915	0.117440	0.116046	0.282511	0.108406	1.450660	2.063152	0.803896	0.000000	0.000000	23.237797	-0.942787	-1.350754	11.346820	-10.112687	39.293730	57.935770	81.528442	3.461613	10.887746	14.018986	-11.702177	51.635447	59.849136	56.326678	-15.399122	3.200539
0.259259	2.196757	-3.923738	87.943248	0.173875	0.960916	0.510990	9.108635	3.410837	-3.590790	5.948888	0.103828	25.319506	-6.993054	0.000000	9.185325	-3.275779	-8.841538	7.959961	0.138928	31.268070	12.110886	0.000000	0.203716	0.178335	0.155191	0.378320	0.237185	0.164890	0.334685	0.433603	0.164890	0.232827	0.433603	0.135792	0.189170	0.363660	0.126093	0.116403	0.276241	0.116393	1.455121	2.017359	0.863126	0.000000	0.000000	23.457531	-1.185805	-1.512880	11.319076	-10.024959	39.442324	57.909371	80.521850	2.954856	11.174933	13.913781	-11.667200	51.086139	59.743231	59.062488	-13.896234	4.853848
